<svg xmlns="http://www.w3.org/2000/svg" width="96" height="128" viewBox="0 0 96 128"><ellipse cx="48" cy="116" rx="23" ry="7" fill="#000" opacity=".32"/><rect x="31" y="85" width="13" height="25" rx="5" fill="#27303b"/><rect x="52" y="85" width="13" height="25" rx="5" fill="#27303b"/><rect x="28" y="54" width="40" height="42" rx="11" fill="#73405e" stroke="#945d7a" stroke-width="2"/><circle cx="48" cy="39" r="18" fill="#d9a17d"/><path d="M28 42c1-21 9-29 21-29 14 0 22 9 22 29l-8-6c-8-7-18-9-35 6z" fill="#3b211d"/><path d="M31 36c-2 15 0 25 5 32" stroke="#3b211d" stroke-width="7" stroke-linecap="round"/><path d="M65 35c3 15 1 26-4 33" stroke="#3b211d" stroke-width="7" stroke-linecap="round"/><circle cx="41" cy="39" r="2" fill="#171313"/><circle cx="55" cy="39" r="2" fill="#171313"/><path d="M42 49q6 4 12 0" stroke="#84513f" stroke-width="2" fill="none"/><path d="M27 63l-10 25" stroke="#d9a17d" stroke-width="8" stroke-linecap="round"/><path d="M69 63l10 25" stroke="#d9a17d" stroke-width="8" stroke-linecap="round"/><rect x="28" y="108" width="18" height="8" rx="4" fill="#10141b"/><rect x="50" y="108" width="18" height="8" rx="4" fill="#10141b"/></svg>