<svg xmlns="http://www.w3.org/2000/svg" width="1280" height="720" viewBox="0 0 1280 720"><defs><linearGradient id="bg" x1="0" y1="0" x2="1" y2="1"><stop stop-color="#080b12"/><stop offset="1" stop-color="#151923"/></linearGradient><pattern id="tile" width="48" height="48" patternUnits="userSpaceOnUse"><rect width="48" height="48" fill="#20242d"/><path d="M48 0H0V48" fill="none" stroke="#2c313c" stroke-width="2"/></pattern><filter id="glow"><feGaussianBlur stdDeviation="4" result="b"/><feMerge><feMergeNode in="b"/><feMergeNode in="SourceGraphic"/></feMerge></filter></defs><rect width="1280" height="720" fill="url(#bg)"/><rect x="35" y="55" width="875" height="585" rx="6" fill="url(#tile)" stroke="#454b59" stroke-width="4"/><rect x="925" y="55" width="320" height="585" rx="6" fill="#12151c" stroke="#454b59" stroke-width="4"/><path d="M52 85H892M942 85H1228" stroke="#f02238" stroke-width="5" filter="url(#glow)"/><rect x="320" y="72" width="305" height="66" rx="8" fill="#0a0d14" stroke="#ff2a42" stroke-width="3"/><text x="472" y="105" text-anchor="middle" fill="#f5f7fb" font-family="Arial" font-size="25" font-weight="700">PC SHOP</text><text x="472" y="132" text-anchor="middle" fill="#ff2a42" font-family="Arial" font-size="28" font-weight="800">EMPIRE</text><g><rect x="70" y="150" width="445" height="120" rx="8" fill="#10141d" stroke="#3b4351" stroke-width="3"/><text x="90" y="177" fill="#ff3448" font-family="Arial" font-size="16" font-weight="700">GAMING ZONE</text><g fill="#171c26" stroke="#394252" stroke-width="2"><rect x="90" y="192" width="65" height="58" rx="4"/><rect x="172" y="192" width="65" height="58" rx="4"/><rect x="254" y="192" width="65" height="58" rx="4"/><rect x="336" y="192" width="65" height="58" rx="4"/><rect x="418" y="192" width="65" height="58" rx="4"/></g><g fill="none" stroke="#7b38ff" stroke-width="7"><circle cx="122" cy="221" r="15"/><circle cx="204" cy="221" r="15"/><circle cx="286" cy="221" r="15"/><circle cx="368" cy="221" r="15"/><circle cx="450" cy="221" r="15"/></g></g><g><rect x="214" y="320" width="355" height="104" rx="8" fill="#2b1f1c" stroke="#68463b" stroke-width="3"/><rect x="234" y="337" width="66" height="67" rx="5" fill="#111722"/><rect x="316" y="337" width="66" height="67" rx="5" fill="#111722"/><rect x="398" y="337" width="66" height="67" rx="5" fill="#111722"/><rect x="480" y="337" width="66" height="67" rx="5" fill="#111722"/><g fill="none" stroke="#31c7ff" stroke-width="6"><circle cx="267" cy="369" r="17"/><circle cx="349" cy="369" r="17"/><circle cx="431" cy="369" r="17"/><circle cx="513" cy="369" r="17"/></g></g><g><rect x="610" y="185" width="285" height="115" rx="9" fill="#2b1d1a" stroke="#765044" stroke-width="3"/><path d="M620 290H885" stroke="#ff243c" stroke-width="6"/><text x="680" y="210" fill="#c9ced8" font-family="Arial" font-size="14">BANCO CLIENTI</text><rect x="775" y="217" width="84" height="50" rx="5" fill="#080b10" stroke="#333b48" stroke-width="2"/><rect x="786" y="226" width="62" height="30" fill="#103050"/></g><g><text x="1005" y="88" fill="#ff3045" font-family="Arial" font-size="21" font-weight="700">LABORATORIO</text><rect x="958" y="115" width="248" height="200" rx="8" fill="#171319" stroke="#6f3b42" stroke-width="3"/><rect x="984" y="198" width="185" height="90" rx="6" fill="#2d211d" stroke="#704b3f" stroke-width="3"/><rect x="1010" y="212" width="72" height="48" rx="4" fill="#090c11" stroke="#3d4655" stroke-width="2"/><rect x="1018" y="220" width="56" height="31" fill="#11406a"/><g stroke="#c5cad4" stroke-width="4"><path d="M982 150v34M1010 150v34M1038 150v34M1066 150v34M1094 150v34M1122 150v34M1150 150v34"/></g><g fill="#0d1118" stroke="#353d49" stroke-width="2"><rect x="958" y="335" width="248" height="48"/><rect x="958" y="394" width="248" height="48"/><rect x="958" y="453" width="248" height="48"/><rect x="958" y="512" width="248" height="48"/></g><g fill="#242b36"><rect x="976" y="345" width="39" height="28"/><rect x="1025" y="345" width="39" height="28"/><rect x="1074" y="345" width="39" height="28"/><rect x="1123" y="345" width="39" height="28"/><rect x="976" y="404" width="39" height="28"/><rect x="1025" y="404" width="39" height="28"/><rect x="1074" y="404" width="39" height="28"/><rect x="1123" y="404" width="39" height="28"/></g></g><g><rect x="72" y="462" width="460" height="128" rx="8" fill="#11151d" stroke="#3a414d" stroke-width="3"/><text x="88" y="452" fill="#aeb5c0" font-family="Arial" font-size="14">USATO / RIPARAZIONI</text><g fill="#171c25" stroke="#3b4350" stroke-width="2"><rect x="91" y="484" width="65" height="82"/><rect x="174" y="484" width="65" height="82"/><rect x="257" y="484" width="65" height="82"/><rect x="340" y="484" width="65" height="82"/><rect x="423" y="484" width="65" height="82"/></g></g><g fill="#2e7a47"><circle cx="96" cy="112" r="16"/><circle cx="115" cy="103" r="14"/><circle cx="865" cy="545" r="18"/><circle cx="590" cy="585" r="18"/></g><rect x="540" y="624" width="205" height="18" fill="#11141b"/><path d="M555 633h175" stroke="#ff243c" stroke-width="4"/></svg>